<svg width="241" height="46" viewBox="0 0 241 46" fill="none" xmlns="http://www.w3.org/2000/svg">
<path d="M10.9329 33.0097C16.4186 38.4838 25.3128 38.4838 30.7986 33.0097L40.7314 23.098L30.7986 13.1863C25.3128 7.71218 16.4186 7.71219 10.9329 13.1863V13.1863C5.44709 18.6604 5.44709 27.5356 10.9329 33.0097V33.0097Z" stroke="url(#paint0_angular_15_70)" stroke-width="11.9528"/>
<path d="M70.2842 12.9903C64.7984 7.51621 55.9042 7.51621 50.4185 12.9903L40.4856 22.902L50.4185 32.8137C55.9042 38.2878 64.7984 38.2878 70.2842 32.8137V32.8137C75.77 27.3396 75.77 18.4644 70.2842 12.9903V12.9903Z" stroke="url(#paint1_angular_15_70)" stroke-width="11.9528"/>
<path d="M89.5821 9.56626H89.9325C90.9447 9.56626 91.4508 10.0724 91.4508 11.0845V21.2454C95.9407 17.6119 99.4704 14.0952 102.04 10.6952C102.559 9.94258 103.35 9.56626 104.415 9.56626H105.777C106.4 9.56626 106.711 9.82579 106.711 10.3449C106.711 10.6044 106.621 10.825 106.439 11.0067C102.935 14.9776 99.1071 18.5981 94.9545 21.8683C97.0308 23.2698 99.172 25.0865 101.378 27.3185C103.584 29.5246 105.557 31.8993 107.295 34.4428C107.477 34.7023 107.568 34.9619 107.568 35.2214C107.568 35.7405 107.218 36 106.517 36H104.882C104.181 36 103.519 35.5588 102.896 34.6764C99.6261 30.0307 95.811 26.1506 91.4508 23.0362V34.5206C91.4508 35.5069 90.9447 36 89.9325 36H89.5821C88.5699 36 88.0638 35.5069 88.0638 34.5206V11.0845C88.0638 10.0724 88.5699 9.56626 89.5821 9.56626ZM113.495 9.56626H113.846C114.884 9.56626 115.403 10.0724 115.403 11.0845V34.5206C115.403 35.5069 114.884 36 113.846 36H113.495C112.509 36 112.016 35.5069 112.016 34.5206V11.0845C112.016 10.0724 112.509 9.56626 113.495 9.56626ZM122.724 23.2698H133.08C134.04 23.2698 134.52 23.698 134.52 24.5545C134.52 25.4109 134.04 25.8392 133.08 25.8392H122.724C121.764 25.8392 121.284 25.4109 121.284 24.5545C121.284 23.698 121.764 23.2698 122.724 23.2698ZM141.973 9.56626H142.751C143.738 9.56626 144.568 10.1113 145.243 11.2013L158.635 30.6665V11.0845C158.635 10.5395 158.752 10.1502 158.985 9.91663C159.219 9.68305 159.595 9.56626 160.114 9.56626H160.465C161.477 9.56626 161.983 10.0724 161.983 11.0845V34.1313C161.983 34.6764 161.853 35.1306 161.594 35.4939C161.334 35.8313 160.958 36 160.465 36H159.959C158.972 36 158.025 35.3382 157.117 34.0145L143.763 14.5883V34.5206C143.763 35.5069 143.296 36 142.362 36H141.973C140.935 36 140.415 35.5069 140.415 34.5206V11.4738C140.415 10.2021 140.935 9.56626 141.973 9.56626ZM176.226 10.0724C177.705 9.52733 179.25 9.25481 180.859 9.25481C182.468 9.25481 183.999 9.52733 185.452 10.0724C186.906 10.5914 188.242 11.37 189.462 12.4082C190.708 13.4463 191.694 14.8738 192.421 16.6905C193.174 18.4813 193.55 20.5317 193.55 22.8415C193.55 25.1254 193.174 27.1628 192.421 28.9536C191.694 30.7184 190.708 32.1199 189.462 33.1581C188.242 34.1962 186.906 34.9878 185.452 35.5328C183.999 36.0519 182.468 36.3114 180.859 36.3114C179.25 36.3114 177.705 36.0519 176.226 35.5328C174.773 34.9878 173.423 34.1962 172.177 33.1581C170.957 32.1199 169.984 30.7184 169.257 28.9536C168.531 27.1628 168.167 25.1254 168.167 22.8415C168.167 20.5317 168.531 18.4813 169.257 16.6905C169.984 14.8738 170.957 13.4463 172.177 12.4082C173.423 11.37 174.773 10.5914 176.226 10.0724ZM187.399 14.9776C185.582 13.1608 183.402 12.2525 180.859 12.2525C178.315 12.2525 176.122 13.1608 174.279 14.9776C172.463 16.7943 171.554 19.4027 171.554 22.8026C171.554 26.1766 172.463 28.7719 174.279 30.5887C176.122 32.4054 178.315 33.3138 180.859 33.3138C183.402 33.3138 185.582 32.4054 187.399 30.5887C189.242 28.7719 190.163 26.1766 190.163 22.8026C190.163 19.4027 189.242 16.7943 187.399 14.9776ZM198.518 9.56626H215.102C216.088 9.56626 216.581 10.0594 216.581 11.0456C216.581 12.0059 216.088 12.486 215.102 12.486H208.484V34.5206C208.484 35.5069 207.978 36 206.965 36H206.615C205.603 36 205.097 35.5069 205.097 34.5206V12.486H198.518C197.531 12.486 197.038 12.0059 197.038 11.0456C197.038 10.0594 197.531 9.56626 198.518 9.56626ZM223.33 9.56626H236.761C237.722 9.56626 238.202 10.0594 238.202 11.0456C238.202 12.0059 237.722 12.486 236.761 12.486H225.199V20.8171H235.477C236.437 20.8171 236.917 21.3103 236.917 22.2965C236.917 23.2568 236.437 23.7369 235.477 23.7369H225.199V33.0802H236.761C237.722 33.0802 238.202 33.5733 238.202 34.5596C238.202 35.5199 237.722 36 236.761 36H223.33C222.318 36 221.812 35.5069 221.812 34.5206V11.0456C221.812 10.0594 222.318 9.56626 223.33 9.56626Z" fill="white"/>
<path d="M91.4508 21.2454H90.8425V22.5201L91.8334 21.7182L91.4508 21.2454ZM102.04 10.6952L102.525 11.062L102.533 11.0515L102.541 11.0406L102.04 10.6952ZM106.439 11.0067L106.009 10.5766L105.995 10.59L105.983 10.6042L106.439 11.0067ZM94.9545 21.8683L94.5782 21.3904L93.9233 21.9061L94.6142 22.3724L94.9545 21.8683ZM101.378 27.3185L100.945 27.7461L100.948 27.7486L101.378 27.3185ZM107.295 34.4428L106.793 34.7861L106.797 34.7916L107.295 34.4428ZM102.896 34.6764L102.399 35.0265L102.399 35.0272L102.896 34.6764ZM91.4508 23.0362L91.8043 22.5412L90.8425 21.8542V23.0362H91.4508ZM89.5821 10.1745H89.9325V8.95797H89.5821V10.1745ZM89.9325 10.1745C90.3448 10.1745 90.5423 10.2772 90.6411 10.376C90.7398 10.4747 90.8425 10.6722 90.8425 11.0845H92.059C92.059 10.4847 91.9087 9.92306 91.5013 9.5157C91.094 9.10835 90.5323 8.95797 89.9325 8.95797V10.1745ZM90.8425 11.0845V21.2454H92.059V11.0845H90.8425ZM91.8334 21.7182C96.3492 18.0638 99.9175 14.5124 102.525 11.062L101.555 10.3285C99.0233 13.6779 95.5323 17.1599 91.0681 20.7725L91.8334 21.7182ZM102.541 11.0406C102.926 10.4814 103.513 10.1745 104.415 10.1745V8.95797C103.188 8.95797 102.192 9.40378 101.539 10.3499L102.541 11.0406ZM104.415 10.1745H105.777V8.95797H104.415V10.1745ZM105.777 10.1745C106.019 10.1745 106.087 10.2272 106.088 10.2282C106.089 10.2284 106.088 10.2274 106.086 10.2258C106.085 10.2243 106.086 10.2251 106.088 10.2301C106.093 10.2407 106.103 10.2747 106.103 10.3449H107.32C107.32 9.95945 107.199 9.56989 106.867 9.29361C106.557 9.03503 106.158 8.95797 105.777 8.95797V10.1745ZM106.103 10.3449C106.103 10.4449 106.075 10.5103 106.009 10.5766L106.869 11.4368C107.166 11.1398 107.32 10.7639 107.32 10.3449H106.103ZM105.983 10.6042C102.503 14.5477 98.7019 18.143 94.5782 21.3904L95.3308 22.3462C99.5123 19.0533 103.367 15.4075 106.895 11.4091L105.983 10.6042ZM94.6142 22.3724C96.6502 23.7467 98.7608 25.5358 100.945 27.7461L101.811 26.8909C99.5831 24.6372 97.4114 22.7928 95.2948 21.3641L94.6142 22.3724ZM100.948 27.7486C103.128 29.9284 105.076 32.2741 106.793 34.7861L107.798 34.0995C106.037 31.5245 104.041 29.1208 101.808 26.8884L100.948 27.7486ZM106.797 34.7916C106.923 34.9718 106.96 35.112 106.96 35.2214H108.176C108.176 34.8118 108.031 34.4328 107.794 34.094L106.797 34.7916ZM106.96 35.2214C106.96 35.2833 106.949 35.3086 106.948 35.3124C106.947 35.3128 106.949 35.3122 106.943 35.3166C106.919 35.3343 106.81 35.3917 106.517 35.3917V36.6083C106.925 36.6083 107.341 36.5359 107.667 36.2941C108.028 36.027 108.176 35.6322 108.176 35.2214H106.96ZM106.517 35.3917H104.882V36.6083H106.517V35.3917ZM104.882 35.3917C104.468 35.3917 103.966 35.1371 103.393 34.3256L102.399 35.0272C103.072 35.9805 103.894 36.6083 104.882 36.6083V35.3917ZM103.394 34.3262C100.087 29.6279 96.2236 25.6978 91.8043 22.5412L91.0972 23.5312C95.3984 26.6034 99.1658 30.4334 102.399 35.0265L103.394 34.3262ZM90.8425 23.0362V34.5206H92.059V23.0362H90.8425ZM90.8425 34.5206C90.8425 34.9159 90.742 35.1016 90.6467 35.1945C90.5484 35.2902 90.3487 35.3917 89.9325 35.3917V36.6083C90.5284 36.6083 91.0879 36.4632 91.4957 36.0658C91.9065 35.6656 92.059 35.1116 92.059 34.5206H90.8425ZM89.9325 35.3917H89.5821V36.6083H89.9325V35.3917ZM89.5821 35.3917C89.1659 35.3917 88.9661 35.2902 88.8679 35.1945C88.7726 35.1016 88.6721 34.9159 88.6721 34.5206H87.4555C87.4555 35.1116 87.6081 35.6656 88.0189 36.0658C88.4267 36.4632 88.9861 36.6083 89.5821 36.6083V35.3917ZM88.6721 34.5206V11.0845H87.4555V34.5206H88.6721ZM88.6721 11.0845C88.6721 10.6722 88.7748 10.4747 88.8735 10.376C88.9722 10.2772 89.1698 10.1745 89.5821 10.1745V8.95797C88.9822 8.95797 88.4206 9.10835 88.0133 9.5157C87.6059 9.92306 87.4555 10.4847 87.4555 11.0845H88.6721ZM113.495 10.1745H113.846V8.95797H113.495V10.1745ZM113.846 10.1745C114.275 10.1745 114.484 10.2792 114.589 10.3814C114.691 10.4807 114.795 10.6762 114.795 11.0845H116.011C116.011 10.4807 115.856 9.91703 115.438 9.51029C115.024 9.10634 114.455 8.95797 113.846 8.95797V10.1745ZM114.795 11.0845V34.5206H116.011V11.0845H114.795ZM114.795 34.5206C114.795 34.9118 114.693 35.0955 114.595 35.1892C114.49 35.2884 114.279 35.3917 113.846 35.3917V36.6083C114.451 36.6083 115.018 36.4651 115.433 36.0712C115.853 35.6717 116.011 35.1157 116.011 34.5206H114.795ZM113.846 35.3917H113.495V36.6083H113.846V35.3917ZM113.495 35.3917C113.096 35.3917 112.908 35.2923 112.816 35.2C112.724 35.1078 112.624 34.92 112.624 34.5206H111.408C111.408 35.1075 111.555 35.6594 111.956 36.0603C112.357 36.4612 112.909 36.6083 113.495 36.6083V35.3917ZM112.624 34.5206V11.0845H111.408V34.5206H112.624ZM112.624 11.0845C112.624 10.6683 112.726 10.4686 112.822 10.3703C112.914 10.275 113.1 10.1745 113.495 10.1745V8.95797C112.904 8.95797 112.35 9.11056 111.95 9.52133C111.553 9.92916 111.408 10.4886 111.408 11.0845H112.624ZM122.724 23.878H133.08V22.6615H122.724V23.878ZM133.08 23.878C133.482 23.878 133.67 23.9693 133.755 24.0449C133.827 24.1087 133.912 24.2392 133.912 24.5545H135.129C135.129 24.0133 134.974 23.5014 134.565 23.137C134.17 22.7843 133.638 22.6615 133.08 22.6615V23.878ZM133.912 24.5545C133.912 24.8698 133.827 25.0002 133.755 25.064C133.67 25.1396 133.482 25.2309 133.08 25.2309V26.4475C133.638 26.4475 134.17 26.3246 134.565 25.972C134.974 25.6075 135.129 25.0956 135.129 24.5545H133.912ZM133.08 25.2309H122.724V26.4475H133.08V25.2309ZM122.724 25.2309C122.322 25.2309 122.134 25.1396 122.049 25.064C121.977 25.0002 121.892 24.8698 121.892 24.5545H120.676C120.676 25.0956 120.831 25.6075 121.239 25.972C121.635 26.3246 122.167 26.4475 122.724 26.4475V25.2309ZM121.892 24.5545C121.892 24.2392 121.977 24.1087 122.049 24.0449C122.134 23.9693 122.322 23.878 122.724 23.878V22.6615C122.167 22.6615 121.635 22.7843 121.239 23.137C120.831 23.5014 120.676 24.0133 120.676 24.5545H121.892ZM145.243 11.2013L144.726 11.5215L144.733 11.534L144.742 11.5461L145.243 11.2013ZM158.635 30.6665L158.134 31.0113L159.243 32.6239V30.6665H158.635ZM161.594 35.4939L162.076 35.8648L162.082 35.8562L162.089 35.8475L161.594 35.4939ZM157.117 34.0145L157.618 33.6704L157.618 33.67L157.117 34.0145ZM143.763 14.5883L144.265 14.2437L143.155 12.6295V14.5883H143.763ZM141.973 10.1745H142.751V8.95797H141.973V10.1745ZM142.751 10.1745C143.464 10.1745 144.124 10.5497 144.726 11.5215L145.76 10.8812C145.012 9.6729 144.011 8.95797 142.751 8.95797V10.1745ZM144.742 11.5461L158.134 31.0113L159.136 30.3218L145.744 10.8566L144.742 11.5461ZM159.243 30.6665V11.0845H158.027V30.6665H159.243ZM159.243 11.0845C159.243 10.6013 159.351 10.4112 159.415 10.3468L158.555 9.48651C158.152 9.88923 158.027 10.4778 158.027 11.0845H159.243ZM159.415 10.3468C159.484 10.2778 159.667 10.1745 160.114 10.1745V8.95797C159.523 8.95797 158.953 9.08826 158.555 9.48651L159.415 10.3468ZM160.114 10.1745H160.465V8.95797H160.114V10.1745ZM160.465 10.1745C160.877 10.1745 161.074 10.2772 161.173 10.376C161.272 10.4747 161.375 10.6722 161.375 11.0845H162.591C162.591 10.4847 162.441 9.92306 162.033 9.5157C161.626 9.10835 161.064 8.95797 160.465 8.95797V10.1745ZM161.375 11.0845V34.1313H162.591V11.0845H161.375ZM161.375 34.1313C161.375 34.578 161.27 34.9011 161.099 35.1403L162.089 35.8475C162.437 35.36 162.591 34.7747 162.591 34.1313H161.375ZM161.111 35.123C160.986 35.2858 160.803 35.3917 160.465 35.3917V36.6083C161.113 36.6083 161.682 36.3768 162.076 35.8648L161.111 35.123ZM160.465 35.3917H159.959V36.6083H160.465V35.3917ZM159.959 35.3917C159.274 35.3917 158.486 34.9342 157.618 33.6704L156.615 34.3587C157.564 35.7421 158.671 36.6083 159.959 36.6083V35.3917ZM157.618 33.67L144.265 14.2437L143.262 14.9328L156.615 34.3591L157.618 33.67ZM143.155 14.5883V34.5206H144.372V14.5883H143.155ZM143.155 34.5206C143.155 34.928 143.058 35.1204 142.972 35.2118C142.891 35.2971 142.727 35.3917 142.362 35.3917V36.6083C142.932 36.6083 143.468 36.4564 143.855 36.0485C144.235 35.6468 144.372 35.0996 144.372 34.5206H143.155ZM142.362 35.3917H141.973V36.6083H142.362V35.3917ZM141.973 35.3917C141.54 35.3917 141.328 35.2884 141.224 35.1892C141.125 35.0955 141.024 34.9118 141.024 34.5206H139.807C139.807 35.1157 139.965 35.6717 140.386 36.0712C140.8 36.4651 141.367 36.6083 141.973 36.6083V35.3917ZM141.024 34.5206V11.4738H139.807V34.5206H141.024ZM141.024 11.4738C141.024 10.9052 141.142 10.5916 141.276 10.4278C141.39 10.2877 141.584 10.1745 141.973 10.1745V8.95797C141.324 8.95797 140.738 9.16277 140.334 9.65849C139.948 10.1306 139.807 10.7708 139.807 11.4738H141.024ZM176.226 10.0724L176.431 10.6452L176.436 10.6431L176.226 10.0724ZM185.452 10.0724L185.239 10.642L185.248 10.6452L185.452 10.0724ZM189.462 12.4082L189.068 12.8714L189.073 12.8755L189.462 12.4082ZM192.421 16.6905L191.856 16.9165L191.86 16.9262L192.421 16.6905ZM192.421 28.9536L191.86 28.7179L191.859 28.722L192.421 28.9536ZM189.462 33.1581L189.073 32.6908L189.068 32.6948L189.462 33.1581ZM185.452 35.5328L185.657 36.1058L185.666 36.1024L185.452 35.5328ZM176.226 35.5328L176.012 36.1025L176.025 36.1068L176.226 35.5328ZM172.177 33.1581L171.783 33.6213L171.788 33.6254L172.177 33.1581ZM169.257 28.9536L168.694 29.1823L168.695 29.1852L169.257 28.9536ZM169.257 16.6905L169.821 16.9192L169.822 16.9164L169.257 16.6905ZM172.177 12.4082L171.788 11.9409L171.783 11.9449L172.177 12.4082ZM187.399 14.9776L186.969 15.4077L186.972 15.4107L187.399 14.9776ZM174.279 14.9776L173.852 14.5444L173.849 14.5475L174.279 14.9776ZM174.279 30.5887L173.849 31.0188L173.852 31.0218L174.279 30.5887ZM187.399 30.5887L186.972 30.1555L186.969 30.1585L187.399 30.5887ZM176.436 10.6431C177.847 10.1234 179.32 9.8631 180.859 9.8631V8.64653C179.179 8.64653 177.564 8.93122 176.016 9.50157L176.436 10.6431ZM180.859 9.8631C182.398 9.8631 183.856 10.1234 185.239 10.6419L185.666 9.5028C184.142 8.93122 182.538 8.64653 180.859 8.64653V9.8631ZM185.248 10.6452C186.629 11.1386 187.902 11.8791 189.068 12.8714L189.857 11.9449C188.583 10.8609 187.182 10.0443 185.657 9.4995L185.248 10.6452ZM189.073 12.8755C190.227 13.8369 191.159 15.1742 191.856 16.9164L192.986 16.4646C192.229 14.5733 191.19 13.0558 189.852 11.9409L189.073 12.8755ZM191.86 16.9262C192.576 18.6297 192.942 20.5976 192.942 22.8415H194.158C194.158 20.4657 193.771 18.333 192.982 16.4548L191.86 16.9262ZM192.942 22.8415C192.942 25.0585 192.577 27.0136 191.86 28.7179L192.982 29.1893C193.771 27.3119 194.158 25.1924 194.158 22.8415H192.942ZM191.859 28.722C191.163 30.4115 190.23 31.7263 189.073 32.6908L189.852 33.6254C191.186 32.5136 192.226 31.0253 192.983 29.1852L191.859 28.722ZM189.068 32.6948C187.9 33.6888 186.624 34.4438 185.239 34.9633L185.666 36.1024C187.187 35.5319 188.585 34.7036 189.857 33.6213L189.068 32.6948ZM185.248 34.96C183.863 35.4546 182.401 35.7032 180.859 35.7032V36.9197C182.535 36.9197 184.135 36.6492 185.657 36.1057L185.248 34.96ZM180.859 35.7032C179.316 35.7032 177.84 35.4546 176.427 34.9589L176.025 36.1068C177.57 36.6492 179.183 36.9197 180.859 36.9197V35.7032ZM176.44 34.9633C175.053 34.4433 173.762 33.6872 172.567 32.6908L171.788 33.6254C173.084 34.7053 174.492 35.5323 176.012 36.1024L176.44 34.9633ZM172.571 32.6948C171.438 31.7304 170.517 30.4144 169.82 28.722L168.695 29.1852C169.451 31.0225 170.477 32.5095 171.783 33.6213L172.571 32.6948ZM169.821 28.7249C169.129 27.0187 168.776 25.061 168.776 22.8415H167.559C167.559 25.1899 167.933 27.3069 168.694 29.1823L169.821 28.7249ZM168.776 22.8415C168.776 20.5951 169.129 18.6247 169.821 16.9192L168.694 16.4618C167.932 18.3379 167.559 20.4682 167.559 22.8415H168.776ZM169.822 16.9164C170.52 15.1714 171.442 13.8328 172.571 12.8714L171.783 11.9449C170.473 13.0599 169.448 14.5762 168.693 16.4646L169.822 16.9164ZM172.567 12.8755C173.76 11.8808 175.048 11.139 176.431 10.6452L176.021 9.4995C174.497 10.0438 173.086 10.8593 171.788 11.9409L172.567 12.8755ZM187.829 14.5475C185.9 12.6179 183.565 11.6442 180.859 11.6442V12.8607C183.239 12.8607 185.265 13.7037 186.969 15.4077L187.829 14.5475ZM180.859 11.6442C178.152 11.6442 175.807 12.6176 173.852 14.5444L174.707 15.4107C176.438 13.704 178.478 12.8607 180.859 12.8607V11.6442ZM173.849 14.5475C171.885 16.5115 170.946 19.2954 170.946 22.8026H172.163C172.163 19.51 173.04 17.0771 174.71 15.4077L173.849 14.5475ZM170.946 22.8026C170.946 26.2854 171.886 29.0556 173.849 31.0188L174.71 30.1585C173.039 28.4883 172.163 26.0677 172.163 22.8026H170.946ZM173.852 31.0218C175.807 32.9486 178.152 33.9221 180.859 33.9221V32.7055C178.478 32.7055 176.438 31.8622 174.707 30.1555L173.852 31.0218ZM180.859 33.9221C183.565 33.9221 185.9 32.9483 187.829 31.0188L186.969 30.1585C185.265 31.8625 183.239 32.7055 180.859 32.7055V33.9221ZM187.826 31.0218C189.817 29.059 190.771 26.2878 190.771 22.8026H189.555C189.555 26.0654 188.666 28.4848 186.972 30.1555L187.826 31.0218ZM190.771 22.8026C190.771 19.293 189.818 16.5081 187.826 14.5444L186.972 15.4107C188.666 17.0806 189.555 19.5123 189.555 22.8026H190.771ZM208.484 12.486V11.8777H207.875V12.486H208.484ZM205.097 12.486H205.705V11.8777H205.097V12.486ZM198.518 10.1745H215.102V8.95797H198.518V10.1745ZM215.102 10.1745C215.501 10.1745 215.689 10.274 215.781 10.3662C215.874 10.4585 215.973 10.6463 215.973 11.0456H217.19C217.19 10.4587 217.042 9.90684 216.642 9.50597C216.241 9.1051 215.689 8.95797 215.102 8.95797V10.1745ZM215.973 11.0456C215.973 11.4278 215.876 11.6037 215.787 11.6901C215.695 11.7795 215.505 11.8777 215.102 11.8777V13.0943C215.685 13.0943 216.234 12.9525 216.636 12.5618C217.04 12.168 217.19 11.6237 217.19 11.0456H215.973ZM215.102 11.8777H208.484V13.0943H215.102V11.8777ZM207.875 12.486V34.5206H209.092V12.486H207.875ZM207.875 34.5206C207.875 34.9159 207.775 35.1016 207.68 35.1945C207.581 35.2902 207.382 35.3917 206.965 35.3917V36.6083C207.561 36.6083 208.121 36.4632 208.529 36.0658C208.939 35.6656 209.092 35.1116 209.092 34.5206H207.875ZM206.965 35.3917H206.615V36.6083H206.965V35.3917ZM206.615 35.3917C206.199 35.3917 205.999 35.2902 205.901 35.1945C205.806 35.1016 205.705 34.9159 205.705 34.5206H204.489C204.489 35.1116 204.641 35.6656 205.052 36.0658C205.46 36.4632 206.019 36.6083 206.615 36.6083V35.3917ZM205.705 34.5206V12.486H204.489V34.5206H205.705ZM205.097 11.8777H198.518V13.0943H205.097V11.8777ZM198.518 11.8777C198.114 11.8777 197.924 11.7795 197.832 11.6901C197.744 11.6037 197.647 11.4278 197.647 11.0456H196.43C196.43 11.6237 196.579 12.168 196.984 12.5618C197.385 12.9525 197.935 13.0943 198.518 13.0943V11.8777ZM197.647 11.0456C197.647 10.6463 197.746 10.4585 197.838 10.3662C197.93 10.274 198.118 10.1745 198.518 10.1745V8.95797C197.931 8.95797 197.379 9.1051 196.978 9.50597C196.577 9.90684 196.43 10.4587 196.43 11.0456H197.647ZM225.199 12.486V11.8777H224.591V12.486H225.199ZM225.199 20.8171H224.591V21.4254H225.199V20.8171ZM225.199 23.7369V23.1286H224.591V23.7369H225.199ZM225.199 33.0802H224.591V33.6885H225.199V33.0802ZM223.33 10.1745H236.761V8.95797H223.33V10.1745ZM236.761 10.1745C237.143 10.1745 237.319 10.2717 237.406 10.3604C237.495 10.4522 237.593 10.6422 237.593 11.0456H238.81C238.81 10.4627 238.668 9.9131 238.277 9.51174C237.884 9.10738 237.339 8.95797 236.761 8.95797V10.1745ZM237.593 11.0456C237.593 11.432 237.497 11.61 237.411 11.6958C237.326 11.7816 237.148 11.8777 236.761 11.8777V13.0943C237.335 13.0943 237.877 12.9504 238.272 12.5561C238.666 12.1617 238.81 11.6195 238.81 11.0456H237.593ZM236.761 11.8777H225.199V13.0943H236.761V11.8777ZM224.591 12.486V20.8171H225.807V12.486H224.591ZM225.199 21.4254H235.477V20.2089H225.199V21.4254ZM235.477 21.4254C235.859 21.4254 236.035 21.5226 236.121 21.6113C236.21 21.7031 236.309 21.8931 236.309 22.2965H237.525C237.525 21.7136 237.383 21.164 236.993 20.7626C236.599 20.3583 236.055 20.2089 235.477 20.2089V21.4254ZM236.309 22.2965C236.309 22.6829 236.212 22.8609 236.127 22.9467C236.041 23.0325 235.863 23.1286 235.477 23.1286V24.3452C236.05 24.3452 236.593 24.2013 236.987 23.8069C237.381 23.4126 237.525 22.8704 237.525 22.2965H236.309ZM235.477 23.1286H225.199V24.3452H235.477V23.1286ZM224.591 23.7369V33.0802H225.807V23.7369H224.591ZM225.199 33.6885H236.761V32.4719H225.199V33.6885ZM236.761 33.6885C237.143 33.6885 237.319 33.7857 237.406 33.8744C237.495 33.9662 237.593 34.1562 237.593 34.5596H238.81C238.81 33.9767 238.668 33.4271 238.277 33.0257C237.884 32.6213 237.339 32.4719 236.761 32.4719V33.6885ZM237.593 34.5596C237.593 34.946 237.497 35.124 237.411 35.2098C237.326 35.2955 237.148 35.3917 236.761 35.3917V36.6083C237.335 36.6083 237.877 36.4644 238.272 36.07C238.666 35.6756 238.81 35.1335 238.81 34.5596H237.593ZM236.761 35.3917H223.33V36.6083H236.761V35.3917ZM223.33 35.3917C222.914 35.3917 222.714 35.2902 222.616 35.1945C222.521 35.1016 222.42 34.9159 222.42 34.5206H221.204C221.204 35.1116 221.356 35.6656 221.767 36.0658C222.175 36.4632 222.734 36.6083 223.33 36.6083V35.3917ZM222.42 34.5206V11.0456H221.204V34.5206H222.42ZM222.42 11.0456C222.42 10.6503 222.521 10.4647 222.616 10.3718C222.714 10.276 222.914 10.1745 223.33 10.1745V8.95797C222.734 8.95797 222.175 9.10304 221.767 9.50042C221.356 9.90066 221.204 10.4547 221.204 11.0456H222.42Z" fill="white"/>
<defs>
<radialGradient id="paint0_angular_15_70" cx="0" cy="0" r="1" gradientUnits="userSpaceOnUse" gradientTransform="translate(20.8657 23.098) scale(24.9177 24.8647)">
<stop stop-color="white"/>
<stop offset="1" stop-color="#11B6B6" stop-opacity="0"/>
</radialGradient>
<radialGradient id="paint1_angular_15_70" cx="0" cy="0" r="1" gradientUnits="userSpaceOnUse" gradientTransform="translate(60.3513 22.902) rotate(180) scale(24.9177 24.8647)">
<stop stop-color="white"/>
<stop offset="1" stop-color="#11B6B6" stop-opacity="0"/>
</radialGradient>
</defs>
</svg>
